<svg xmlns="http://www.w3.org/2000/svg" version="1.1" xmlns:xlink="http://www.w3.org/1999/xlink" xmlns:svgjs="http://svgjs.com/svgjs" width="1440" height="560" preserveAspectRatio="none" viewBox="0 0 1440 560"><g mask="url(&quot;#SvgjsMask1251&quot;)" fill="none"><rect width="1440" height="560" x="0" y="0" fill="url(#SvgjsLinearGradient1252)"></rect><g mask="url(&quot;#SvgjsMask1253&quot;)"><path d="M104.5 237.5L123.5 256.5L142.5 256.5L161.5 256.5M66.5 256.5L85.5 256.5L104.5 256.5L123.5 275.5L142.5 275.5M47.5 275.5L66.5 275.5L85.5 275.5L104.5 275.5M-9.5 275.5L9.5 275.5L28.5 275.5L47.5 275.5L66.5 256.5L85.5 237.5L104.5 237.5L123.5 237.5" stroke="rgba(201, 96, 226, 1)" stroke-width="3.17"></path><path d="M118.75 237.5 a4.75 4.75 0 1 0 9.5 0 a4.75 4.75 0 1 0 -9.5 0zM156.75 256.5 a4.75 4.75 0 1 0 9.5 0 a4.75 4.75 0 1 0 -9.5 0zM137.75 275.5 a4.75 4.75 0 1 0 9.5 0 a4.75 4.75 0 1 0 -9.5 0zM99.75 275.5 a4.75 4.75 0 1 0 9.5 0 a4.75 4.75 0 1 0 -9.5 0z" fill="rgba(201, 96, 226, 1)"></path><path d="M-9.5 294.5L9.5 294.5" stroke="rgba(201, 96, 226, 1)" stroke-width="3.17"></path><path d="M4.75 294.5 a4.75 4.75 0 1 0 9.5 0 a4.75 4.75 0 1 0 -9.5 0z" fill="rgba(201, 96, 226, 1)"></path><path d="M408.5 180.5L427.5 161.5L446.5 161.5M503.5 180.5L522.5 199.5L541.5 199.5M427.5 180.5L446.5 199.5L465.5 199.5L484.5 199.5M370.5 199.5L389.5 180.5M161.5 218.5L180.5 237.5L199.5 237.5M237.5 218.5L256.5 237.5M389.5 199.5L408.5 199.5M-9.5 256.5L9.5 256.5L28.5 256.5L47.5 256.5L66.5 237.5L85.5 218.5L104.5 218.5L123.5 218.5L142.5 218.5L161.5 218.5L180.5 218.5L199.5 218.5L218.5 218.5L237.5 218.5L256.5 218.5L275.5 218.5L294.5 199.5L313.5 199.5L332.5 199.5L351.5 199.5L370.5 199.5L389.5 199.5L408.5 180.5L427.5 180.5L446.5 180.5L465.5 161.5L484.5 161.5L503.5 180.5L522.5 180.5" stroke="#3a7cc3" stroke-width="3.17"></path><path d="M517.75 180.5 a4.75 4.75 0 1 0 9.5 0 a4.75 4.75 0 1 0 -9.5 0zM441.75 161.5 a4.75 4.75 0 1 0 9.5 0 a4.75 4.75 0 1 0 -9.5 0zM536.75 199.5 a4.75 4.75 0 1 0 9.5 0 a4.75 4.75 0 1 0 -9.5 0zM479.75 199.5 a4.75 4.75 0 1 0 9.5 0 a4.75 4.75 0 1 0 -9.5 0zM384.75 180.5 a4.75 4.75 0 1 0 9.5 0 a4.75 4.75 0 1 0 -9.5 0zM194.75 237.5 a4.75 4.75 0 1 0 9.5 0 a4.75 4.75 0 1 0 -9.5 0zM251.75 237.5 a4.75 4.75 0 1 0 9.5 0 a4.75 4.75 0 1 0 -9.5 0zM403.75 199.5 a4.75 4.75 0 1 0 9.5 0 a4.75 4.75 0 1 0 -9.5 0z" fill="#3a7cc3"></path><path d="M294.5 256.5L313.5 275.5L332.5 275.5L351.5 275.5L370.5 275.5M199.5 275.5L218.5 256.5L237.5 256.5L256.5 256.5L275.5 256.5L294.5 237.5L313.5 237.5L332.5 237.5L351.5 237.5L370.5 237.5M180.5 275.5L199.5 256.5M408.5 256.5L427.5 237.5L446.5 237.5L465.5 237.5L484.5 237.5M541.5 237.5L560.5 256.5L579.5 256.5L598.5 256.5L617.5 256.5L636.5 256.5L655.5 256.5L674.5 256.5L693.5 256.5L712.5 256.5L731.5 256.5L750.5 256.5L769.5 256.5L788.5 256.5M560.5 237.5L579.5 218.5L598.5 218.5L617.5 218.5L636.5 218.5L655.5 218.5L674.5 218.5M275.5 275.5L294.5 275.5M484.5 256.5L503.5 275.5M-9.5 313.5L9.5 313.5L28.5 313.5L47.5 294.5L66.5 294.5L85.5 294.5L104.5 294.5L123.5 294.5L142.5 294.5L161.5 275.5L180.5 275.5L199.5 275.5L218.5 275.5L237.5 275.5L256.5 275.5L275.5 275.5L294.5 256.5L313.5 256.5L332.5 256.5L351.5 256.5L370.5 256.5L389.5 256.5L408.5 256.5L427.5 256.5L446.5 256.5L465.5 256.5L484.5 256.5L503.5 256.5L522.5 237.5L541.5 237.5L560.5 237.5L579.5 237.5L598.5 237.5L617.5 237.5" stroke="rgba(201, 96, 226, 1)" stroke-width="3.17"></path><path d="M612.75 237.5 a4.75 4.75 0 1 0 9.5 0 a4.75 4.75 0 1 0 -9.5 0zM365.75 275.5 a4.75 4.75 0 1 0 9.5 0 a4.75 4.75 0 1 0 -9.5 0zM365.75 237.5 a4.75 4.75 0 1 0 9.5 0 a4.75 4.75 0 1 0 -9.5 0zM194.75 256.5 a4.75 4.75 0 1 0 9.5 0 a4.75 4.75 0 1 0 -9.5 0zM479.75 237.5 a4.75 4.75 0 1 0 9.5 0 a4.75 4.75 0 1 0 -9.5 0zM783.75 256.5 a4.75 4.75 0 1 0 9.5 0 a4.75 4.75 0 1 0 -9.5 0zM669.75 218.5 a4.75 4.75 0 1 0 9.5 0 a4.75 4.75 0 1 0 -9.5 0zM289.75 275.5 a4.75 4.75 0 1 0 9.5 0 a4.75 4.75 0 1 0 -9.5 0zM498.75 275.5 a4.75 4.75 0 1 0 9.5 0 a4.75 4.75 0 1 0 -9.5 0z" fill="rgba(201, 96, 226, 1)"></path><path d="M370.5 142.5L389.5 161.5L408.5 161.5M598.5 142.5L617.5 161.5L636.5 180.5L655.5 180.5L674.5 180.5L693.5 180.5L712.5 180.5L731.5 180.5L750.5 180.5L769.5 180.5L788.5 180.5L807.5 180.5L826.5 180.5M883.5 142.5L902.5 161.5L921.5 161.5L940.5 161.5M750.5 142.5L769.5 161.5L788.5 161.5L807.5 161.5L826.5 161.5L845.5 161.5L864.5 161.5L883.5 161.5L902.5 180.5L921.5 180.5L940.5 180.5M294.5 161.5L313.5 180.5L332.5 180.5M845.5 123.5L864.5 123.5L883.5 123.5M275.5 161.5L294.5 180.5M826.5 123.5L845.5 142.5M636.5 142.5L655.5 161.5L674.5 161.5L693.5 161.5L712.5 161.5M712.5 142.5L731.5 123.5L750.5 123.5L769.5 123.5L788.5 104.5L807.5 85.5L826.5 66.5L845.5 66.5L864.5 66.5L883.5 66.5L902.5 47.5L921.5 47.5M788.5 123.5L807.5 142.5L826.5 142.5M769.5 142.5L788.5 142.5M-9.5 237.5L9.5 237.5L28.5 237.5L47.5 237.5L66.5 218.5L85.5 199.5L104.5 199.5L123.5 199.5L142.5 199.5L161.5 199.5L180.5 199.5L199.5 199.5L218.5 199.5L237.5 180.5L256.5 161.5L275.5 161.5L294.5 161.5L313.5 161.5L332.5 161.5L351.5 142.5L370.5 142.5L389.5 142.5L408.5 142.5L427.5 142.5L446.5 142.5L465.5 142.5L484.5 142.5L503.5 142.5L522.5 142.5L541.5 142.5L560.5 142.5L579.5 142.5L598.5 142.5L617.5 142.5L636.5 142.5L655.5 142.5L674.5 142.5L693.5 142.5L712.5 142.5L731.5 142.5L750.5 142.5L769.5 142.5L788.5 123.5L807.5 123.5L826.5 123.5L845.5 123.5L864.5 142.5L883.5 142.5L902.5 142.5L921.5 142.5" stroke="rgba(201, 96, 226, 1)" stroke-width="3.17"></path><path d="M916.75 142.5 a4.75 4.75 0 1 0 9.5 0 a4.75 4.75 0 1 0 -9.5 0zM403.75 161.5 a4.75 4.75 0 1 0 9.5 0 a4.75 4.75 0 1 0 -9.5 0zM821.75 180.5 a4.75 4.75 0 1 0 9.5 0 a4.75 4.75 0 1 0 -9.5 0zM935.75 161.5 a4.75 4.75 0 1 0 9.5 0 a4.75 4.75 0 1 0 -9.5 0zM935.75 180.5 a4.75 4.75 0 1 0 9.5 0 a4.75 4.75 0 1 0 -9.5 0zM327.75 180.5 a4.75 4.75 0 1 0 9.5 0 a4.75 4.75 0 1 0 -9.5 0zM878.75 123.5 a4.75 4.75 0 1 0 9.5 0 a4.75 4.75 0 1 0 -9.5 0zM289.75 180.5 a4.75 4.75 0 1 0 9.5 0 a4.75 4.75 0 1 0 -9.5 0zM840.75 142.5 a4.75 4.75 0 1 0 9.5 0 a4.75 4.75 0 1 0 -9.5 0zM707.75 161.5 a4.75 4.75 0 1 0 9.5 0 a4.75 4.75 0 1 0 -9.5 0zM916.75 47.5 a4.75 4.75 0 1 0 9.5 0 a4.75 4.75 0 1 0 -9.5 0zM821.75 142.5 a4.75 4.75 0 1 0 9.5 0 a4.75 4.75 0 1 0 -9.5 0zM783.75 142.5 a4.75 4.75 0 1 0 9.5 0 a4.75 4.75 0 1 0 -9.5 0z" fill="rgba(201, 96, 226, 1)"></path><path d="M161.5 294.5L180.5 313.5L199.5 313.5L218.5 313.5L237.5 313.5L256.5 313.5M47.5 313.5L66.5 332.5L85.5 332.5L104.5 332.5M123.5 313.5L142.5 332.5L161.5 332.5M142.5 313.5L161.5 313.5M28.5 332.5L47.5 332.5M332.5 294.5L351.5 313.5L370.5 313.5L389.5 313.5L408.5 313.5L427.5 313.5L446.5 313.5M-9.5 332.5L9.5 332.5L28.5 332.5L47.5 313.5L66.5 313.5L85.5 313.5L104.5 313.5L123.5 313.5L142.5 313.5L161.5 294.5L180.5 294.5L199.5 294.5L218.5 294.5L237.5 294.5L256.5 294.5L275.5 294.5L294.5 294.5L313.5 294.5L332.5 294.5L351.5 294.5L370.5 294.5L389.5 294.5L408.5 294.5L427.5 294.5L446.5 294.5" stroke="#3a7cc3" stroke-width="3.17"></path><path d="M441.75 294.5 a4.75 4.75 0 1 0 9.5 0 a4.75 4.75 0 1 0 -9.5 0zM251.75 313.5 a4.75 4.75 0 1 0 9.5 0 a4.75 4.75 0 1 0 -9.5 0zM99.75 332.5 a4.75 4.75 0 1 0 9.5 0 a4.75 4.75 0 1 0 -9.5 0zM156.75 332.5 a4.75 4.75 0 1 0 9.5 0 a4.75 4.75 0 1 0 -9.5 0zM156.75 313.5 a4.75 4.75 0 1 0 9.5 0 a4.75 4.75 0 1 0 -9.5 0zM42.75 332.5 a4.75 4.75 0 1 0 9.5 0 a4.75 4.75 0 1 0 -9.5 0zM441.75 313.5 a4.75 4.75 0 1 0 9.5 0 a4.75 4.75 0 1 0 -9.5 0z" fill="#3a7cc3"></path><path d="M522.5 123.5L541.5 104.5L560.5 104.5L579.5 104.5L598.5 104.5L617.5 104.5L636.5 104.5M294.5 142.5L313.5 123.5M275.5 142.5L294.5 123.5M484.5 123.5L503.5 104.5L522.5 104.5L541.5 85.5L560.5 85.5L579.5 85.5L598.5 85.5L617.5 85.5M674.5 123.5L693.5 104.5L712.5 104.5L731.5 104.5L750.5 104.5L769.5 104.5L788.5 85.5L807.5 66.5L826.5 47.5L845.5 47.5L864.5 47.5M180.5 180.5L199.5 161.5L218.5 161.5M28.5 218.5L47.5 199.5M655.5 123.5L674.5 104.5M161.5 180.5L180.5 161.5M-9.5 218.5L9.5 218.5L28.5 218.5L47.5 218.5L66.5 199.5L85.5 180.5L104.5 180.5L123.5 180.5L142.5 180.5L161.5 180.5L180.5 180.5L199.5 180.5L218.5 180.5L237.5 161.5L256.5 142.5L275.5 142.5L294.5 142.5L313.5 142.5L332.5 142.5L351.5 123.5L370.5 123.5L389.5 123.5L408.5 123.5L427.5 123.5L446.5 123.5L465.5 123.5L484.5 123.5L503.5 123.5L522.5 123.5L541.5 123.5L560.5 123.5L579.5 123.5L598.5 123.5L617.5 123.5L636.5 123.5L655.5 123.5L674.5 123.5L693.5 123.5" stroke="rgba(201, 96, 226, 1)" stroke-width="3.17"></path><path d="M688.75 123.5 a4.75 4.75 0 1 0 9.5 0 a4.75 4.75 0 1 0 -9.5 0zM631.75 104.5 a4.75 4.75 0 1 0 9.5 0 a4.75 4.75 0 1 0 -9.5 0zM308.75 123.5 a4.75 4.75 0 1 0 9.5 0 a4.75 4.75 0 1 0 -9.5 0zM289.75 123.5 a4.75 4.75 0 1 0 9.5 0 a4.75 4.75 0 1 0 -9.5 0zM612.75 85.5 a4.75 4.75 0 1 0 9.5 0 a4.75 4.75 0 1 0 -9.5 0zM859.75 47.5 a4.75 4.75 0 1 0 9.5 0 a4.75 4.75 0 1 0 -9.5 0zM213.75 161.5 a4.75 4.75 0 1 0 9.5 0 a4.75 4.75 0 1 0 -9.5 0zM42.75 199.5 a4.75 4.75 0 1 0 9.5 0 a4.75 4.75 0 1 0 -9.5 0zM669.75 104.5 a4.75 4.75 0 1 0 9.5 0 a4.75 4.75 0 1 0 -9.5 0zM175.75 161.5 a4.75 4.75 0 1 0 9.5 0 a4.75 4.75 0 1 0 -9.5 0z" fill="rgba(201, 96, 226, 1)"></path><path d="M522.5 389.5L541.5 389.5L560.5 389.5L579.5 389.5L598.5 389.5M199.5 370.5L218.5 389.5L237.5 389.5L256.5 389.5L275.5 389.5L294.5 389.5L313.5 389.5L332.5 389.5L351.5 389.5M484.5 370.5L503.5 351.5L522.5 351.5L541.5 351.5L560.5 351.5M275.5 370.5L294.5 351.5L313.5 351.5L332.5 351.5L351.5 351.5L370.5 351.5M446.5 370.5L465.5 389.5L484.5 389.5M180.5 370.5L199.5 351.5L218.5 351.5L237.5 351.5M503.5 370.5L522.5 370.5L541.5 370.5L560.5 370.5L579.5 370.5L598.5 370.5L617.5 370.5M142.5 370.5L161.5 351.5M-9.5 351.5L9.5 351.5L28.5 351.5L47.5 351.5L66.5 351.5L85.5 351.5L104.5 351.5L123.5 370.5L142.5 370.5L161.5 370.5L180.5 370.5L199.5 370.5L218.5 370.5L237.5 370.5L256.5 370.5L275.5 370.5L294.5 370.5L313.5 370.5L332.5 370.5L351.5 370.5L370.5 370.5L389.5 389.5L408.5 389.5L427.5 389.5L446.5 370.5L465.5 370.5L484.5 370.5L503.5 370.5L522.5 389.5L541.5 408.5L560.5 408.5L579.5 408.5L598.5 408.5L617.5 408.5L636.5 408.5" stroke="rgba(201, 96, 226, 1)" stroke-width="3.17"></path><path d="M631.75 408.5 a4.75 4.75 0 1 0 9.5 0 a4.75 4.75 0 1 0 -9.5 0zM593.75 389.5 a4.75 4.75 0 1 0 9.5 0 a4.75 4.75 0 1 0 -9.5 0zM346.75 389.5 a4.75 4.75 0 1 0 9.5 0 a4.75 4.75 0 1 0 -9.5 0zM555.75 351.5 a4.75 4.75 0 1 0 9.5 0 a4.75 4.75 0 1 0 -9.5 0zM365.75 351.5 a4.75 4.75 0 1 0 9.5 0 a4.75 4.75 0 1 0 -9.5 0zM479.75 389.5 a4.75 4.75 0 1 0 9.5 0 a4.75 4.75 0 1 0 -9.5 0zM232.75 351.5 a4.75 4.75 0 1 0 9.5 0 a4.75 4.75 0 1 0 -9.5 0zM612.75 370.5 a4.75 4.75 0 1 0 9.5 0 a4.75 4.75 0 1 0 -9.5 0zM156.75 351.5 a4.75 4.75 0 1 0 9.5 0 a4.75 4.75 0 1 0 -9.5 0z" fill="rgba(201, 96, 226, 1)"></path><path d="M256.5 123.5L275.5 123.5M9.5 199.5L28.5 199.5M-9.5 199.5L9.5 199.5L28.5 180.5L47.5 180.5L66.5 180.5L85.5 161.5L104.5 161.5L123.5 161.5L142.5 161.5L161.5 142.5L180.5 142.5L199.5 142.5L218.5 142.5L237.5 142.5L256.5 123.5L275.5 104.5L294.5 104.5L313.5 104.5L332.5 104.5L351.5 104.5L370.5 104.5L389.5 104.5L408.5 104.5L427.5 104.5L446.5 104.5L465.5 104.5" stroke="#3a7cc3" stroke-width="3.17"></path><path d="M460.75 104.5 a4.75 4.75 0 1 0 9.5 0 a4.75 4.75 0 1 0 -9.5 0zM270.75 123.5 a4.75 4.75 0 1 0 9.5 0 a4.75 4.75 0 1 0 -9.5 0zM23.75 199.5 a4.75 4.75 0 1 0 9.5 0 a4.75 4.75 0 1 0 -9.5 0z" fill="#3a7cc3"></path><path d="M85.5 370.5L104.5 389.5M142.5 389.5L161.5 408.5L180.5 408.5L199.5 408.5M66.5 370.5L85.5 389.5M-9.5 370.5L9.5 370.5L28.5 370.5L47.5 370.5L66.5 370.5L85.5 370.5L104.5 370.5L123.5 389.5L142.5 389.5L161.5 389.5" stroke="rgba(201, 96, 226, 1)" stroke-width="3.17"></path><path d="M156.75 389.5 a4.75 4.75 0 1 0 9.5 0 a4.75 4.75 0 1 0 -9.5 0zM99.75 389.5 a4.75 4.75 0 1 0 9.5 0 a4.75 4.75 0 1 0 -9.5 0zM194.75 408.5 a4.75 4.75 0 1 0 9.5 0 a4.75 4.75 0 1 0 -9.5 0zM80.75 389.5 a4.75 4.75 0 1 0 9.5 0 a4.75 4.75 0 1 0 -9.5 0z" fill="rgba(201, 96, 226, 1)"></path><path d="M-9.5 180.5L9.5 180.5L28.5 161.5L47.5 161.5L66.5 161.5L85.5 142.5L104.5 142.5L123.5 142.5" stroke="rgba(201, 96, 226, 1)" stroke-width="3.17"></path><path d="M118.75 142.5 a4.75 4.75 0 1 0 9.5 0 a4.75 4.75 0 1 0 -9.5 0z" fill="rgba(201, 96, 226, 1)"></path><path d="M47.5 408.5L66.5 389.5M28.5 389.5L47.5 389.5M-9.5 389.5L9.5 389.5L28.5 389.5L47.5 408.5L66.5 408.5L85.5 408.5L104.5 408.5L123.5 408.5" stroke="#dd1133" stroke-width="3.17"></path><path d="M118.75 408.5 a4.75 4.75 0 1 0 9.5 0 a4.75 4.75 0 1 0 -9.5 0zM61.75 389.5 a4.75 4.75 0 1 0 9.5 0 a4.75 4.75 0 1 0 -9.5 0zM42.75 389.5 a4.75 4.75 0 1 0 9.5 0 a4.75 4.75 0 1 0 -9.5 0z" fill="#dd1133"></path><path d="M-9.5 161.5L9.5 161.5L28.5 142.5L47.5 142.5L66.5 142.5L85.5 123.5L104.5 123.5L123.5 123.5L142.5 123.5L161.5 123.5L180.5 123.5L199.5 123.5L218.5 123.5L237.5 123.5L256.5 104.5L275.5 85.5L294.5 85.5L313.5 85.5L332.5 85.5L351.5 85.5L370.5 85.5L389.5 85.5L408.5 85.5L427.5 85.5L446.5 85.5L465.5 85.5" stroke="rgba(201, 96, 226, 1)" stroke-width="3.17"></path><path d="M460.75 85.5 a4.75 4.75 0 1 0 9.5 0 a4.75 4.75 0 1 0 -9.5 0z" fill="rgba(201, 96, 226, 1)"></path><path d="M199.5 427.5L218.5 446.5L237.5 446.5L256.5 446.5L275.5 465.5L294.5 465.5L313.5 465.5L332.5 465.5L351.5 465.5L370.5 465.5M446.5 446.5L465.5 427.5L484.5 427.5L503.5 427.5M161.5 427.5L180.5 446.5L199.5 446.5M123.5 427.5L142.5 446.5L161.5 446.5M389.5 446.5L408.5 465.5L427.5 465.5L446.5 465.5L465.5 465.5M332.5 446.5L351.5 427.5M256.5 427.5L275.5 427.5L294.5 427.5M-9.5 408.5L9.5 408.5L28.5 408.5L47.5 427.5L66.5 427.5L85.5 427.5L104.5 427.5L123.5 427.5L142.5 427.5L161.5 427.5L180.5 427.5L199.5 427.5L218.5 427.5L237.5 427.5L256.5 427.5L275.5 446.5L294.5 446.5L313.5 446.5L332.5 446.5L351.5 446.5L370.5 446.5L389.5 446.5L408.5 446.5L427.5 446.5L446.5 446.5L465.5 446.5L484.5 446.5L503.5 446.5L522.5 446.5L541.5 446.5" stroke="#dd1133" stroke-width="3.17"></path><path d="M536.75 446.5 a4.75 4.75 0 1 0 9.5 0 a4.75 4.75 0 1 0 -9.5 0zM365.75 465.5 a4.75 4.75 0 1 0 9.5 0 a4.75 4.75 0 1 0 -9.5 0zM498.75 427.5 a4.75 4.75 0 1 0 9.5 0 a4.75 4.75 0 1 0 -9.5 0zM194.75 446.5 a4.75 4.75 0 1 0 9.5 0 a4.75 4.75 0 1 0 -9.5 0zM156.75 446.5 a4.75 4.75 0 1 0 9.5 0 a4.75 4.75 0 1 0 -9.5 0zM460.75 465.5 a4.75 4.75 0 1 0 9.5 0 a4.75 4.75 0 1 0 -9.5 0zM346.75 427.5 a4.75 4.75 0 1 0 9.5 0 a4.75 4.75 0 1 0 -9.5 0zM289.75 427.5 a4.75 4.75 0 1 0 9.5 0 a4.75 4.75 0 1 0 -9.5 0z" fill="#dd1133"></path><path d="M579.5 47.5L598.5 66.5L617.5 66.5L636.5 66.5M47.5 123.5L66.5 104.5L85.5 85.5L104.5 85.5L123.5 85.5L142.5 85.5L161.5 85.5L180.5 85.5L199.5 85.5L218.5 66.5L237.5 66.5L256.5 66.5L275.5 47.5L294.5 47.5L313.5 47.5M522.5 66.5L541.5 47.5M370.5 66.5L389.5 47.5L408.5 47.5L427.5 47.5L446.5 47.5M484.5 66.5L503.5 47.5M560.5 47.5L579.5 66.5M693.5 47.5L712.5 66.5L731.5 66.5M28.5 123.5L47.5 104.5L66.5 85.5L85.5 66.5L104.5 66.5M541.5 66.5L560.5 66.5M-9.5 142.5L9.5 142.5L28.5 123.5L47.5 123.5L66.5 123.5L85.5 104.5L104.5 104.5L123.5 104.5L142.5 104.5L161.5 104.5L180.5 104.5L199.5 104.5L218.5 104.5L237.5 104.5L256.5 85.5L275.5 66.5L294.5 66.5L313.5 66.5L332.5 66.5L351.5 66.5L370.5 66.5L389.5 66.5L408.5 66.5L427.5 66.5L446.5 66.5L465.5 66.5L484.5 66.5L503.5 66.5L522.5 66.5L541.5 66.5L560.5 47.5L579.5 47.5L598.5 47.5L617.5 47.5L636.5 47.5L655.5 47.5L674.5 47.5L693.5 47.5L712.5 47.5" stroke="rgba(201, 96, 226, 1)" stroke-width="3.17"></path><path d="M707.75 47.5 a4.75 4.75 0 1 0 9.5 0 a4.75 4.75 0 1 0 -9.5 0zM631.75 66.5 a4.75 4.75 0 1 0 9.5 0 a4.75 4.75 0 1 0 -9.5 0zM308.75 47.5 a4.75 4.75 0 1 0 9.5 0 a4.75 4.75 0 1 0 -9.5 0zM536.75 47.5 a4.75 4.75 0 1 0 9.5 0 a4.75 4.75 0 1 0 -9.5 0zM441.75 47.5 a4.75 4.75 0 1 0 9.5 0 a4.75 4.75 0 1 0 -9.5 0zM498.75 47.5 a4.75 4.75 0 1 0 9.5 0 a4.75 4.75 0 1 0 -9.5 0zM574.75 66.5 a4.75 4.75 0 1 0 9.5 0 a4.75 4.75 0 1 0 -9.5 0zM726.75 66.5 a4.75 4.75 0 1 0 9.5 0 a4.75 4.75 0 1 0 -9.5 0zM99.75 66.5 a4.75 4.75 0 1 0 9.5 0 a4.75 4.75 0 1 0 -9.5 0zM555.75 66.5 a4.75 4.75 0 1 0 9.5 0 a4.75 4.75 0 1 0 -9.5 0z" fill="rgba(201, 96, 226, 1)"></path></g></g><defs><mask id="SvgjsMask1251"><rect width="1440" height="560" fill="#ffffff"></rect></mask><linearGradient x1="15.28%" y1="-39.29%" x2="84.72%" y2="139.29%" gradientUnits="userSpaceOnUse" id="SvgjsLinearGradient1252"><stop stop-color="#0e2a47" offset="0"></stop><stop stop-color="rgba(137, 0, 158, 1)" offset="1"></stop></linearGradient><mask id="SvgjsMask1253"><rect width="1440" height="560" fill="white"></rect><path d="M121.12 237.5 a2.38 2.38 0 1 0 4.76 0 a2.38 2.38 0 1 0 -4.76 0zM159.12 256.5 a2.38 2.38 0 1 0 4.76 0 a2.38 2.38 0 1 0 -4.76 0zM140.12 275.5 a2.38 2.38 0 1 0 4.76 0 a2.38 2.38 0 1 0 -4.76 0zM102.12 275.5 a2.38 2.38 0 1 0 4.76 0 a2.38 2.38 0 1 0 -4.76 0z" fill="black"></path><path d="M7.12 294.5 a2.38 2.38 0 1 0 4.76 0 a2.38 2.38 0 1 0 -4.76 0z" fill="black"></path><path d="M520.12 180.5 a2.38 2.38 0 1 0 4.76 0 a2.38 2.38 0 1 0 -4.76 0zM444.12 161.5 a2.38 2.38 0 1 0 4.76 0 a2.38 2.38 0 1 0 -4.76 0zM539.12 199.5 a2.38 2.38 0 1 0 4.76 0 a2.38 2.38 0 1 0 -4.76 0zM482.12 199.5 a2.38 2.38 0 1 0 4.76 0 a2.38 2.38 0 1 0 -4.76 0zM387.12 180.5 a2.38 2.38 0 1 0 4.76 0 a2.38 2.38 0 1 0 -4.76 0zM197.12 237.5 a2.38 2.38 0 1 0 4.76 0 a2.38 2.38 0 1 0 -4.76 0zM254.12 237.5 a2.38 2.38 0 1 0 4.76 0 a2.38 2.38 0 1 0 -4.76 0zM406.12 199.5 a2.38 2.38 0 1 0 4.76 0 a2.38 2.38 0 1 0 -4.76 0z" fill="black"></path><path d="M615.12 237.5 a2.38 2.38 0 1 0 4.76 0 a2.38 2.38 0 1 0 -4.76 0zM368.12 275.5 a2.38 2.38 0 1 0 4.76 0 a2.38 2.38 0 1 0 -4.76 0zM368.12 237.5 a2.38 2.38 0 1 0 4.76 0 a2.38 2.38 0 1 0 -4.76 0zM197.12 256.5 a2.38 2.38 0 1 0 4.76 0 a2.38 2.38 0 1 0 -4.76 0zM482.12 237.5 a2.38 2.38 0 1 0 4.76 0 a2.38 2.38 0 1 0 -4.76 0zM786.12 256.5 a2.38 2.38 0 1 0 4.76 0 a2.38 2.38 0 1 0 -4.76 0zM672.12 218.5 a2.38 2.38 0 1 0 4.76 0 a2.38 2.38 0 1 0 -4.76 0zM292.12 275.5 a2.38 2.38 0 1 0 4.76 0 a2.38 2.38 0 1 0 -4.76 0zM501.12 275.5 a2.38 2.38 0 1 0 4.76 0 a2.38 2.38 0 1 0 -4.76 0z" fill="black"></path><path d="M919.12 142.5 a2.38 2.38 0 1 0 4.76 0 a2.38 2.38 0 1 0 -4.76 0zM406.12 161.5 a2.38 2.38 0 1 0 4.76 0 a2.38 2.38 0 1 0 -4.76 0zM824.12 180.5 a2.38 2.38 0 1 0 4.76 0 a2.38 2.38 0 1 0 -4.76 0zM938.12 161.5 a2.38 2.38 0 1 0 4.76 0 a2.38 2.38 0 1 0 -4.76 0zM938.12 180.5 a2.38 2.38 0 1 0 4.76 0 a2.38 2.38 0 1 0 -4.76 0zM330.12 180.5 a2.38 2.38 0 1 0 4.76 0 a2.38 2.38 0 1 0 -4.76 0zM881.12 123.5 a2.38 2.38 0 1 0 4.76 0 a2.38 2.38 0 1 0 -4.76 0zM292.12 180.5 a2.38 2.38 0 1 0 4.76 0 a2.38 2.38 0 1 0 -4.76 0zM843.12 142.5 a2.38 2.38 0 1 0 4.76 0 a2.38 2.38 0 1 0 -4.76 0zM710.12 161.5 a2.38 2.38 0 1 0 4.76 0 a2.38 2.38 0 1 0 -4.76 0zM919.12 47.5 a2.38 2.38 0 1 0 4.76 0 a2.38 2.38 0 1 0 -4.76 0zM824.12 142.5 a2.38 2.38 0 1 0 4.76 0 a2.38 2.38 0 1 0 -4.76 0zM786.12 142.5 a2.38 2.38 0 1 0 4.76 0 a2.38 2.38 0 1 0 -4.76 0z" fill="black"></path><path d="M444.12 294.5 a2.38 2.38 0 1 0 4.76 0 a2.38 2.38 0 1 0 -4.76 0zM254.12 313.5 a2.38 2.38 0 1 0 4.76 0 a2.38 2.38 0 1 0 -4.76 0zM102.12 332.5 a2.38 2.38 0 1 0 4.76 0 a2.38 2.38 0 1 0 -4.76 0zM159.12 332.5 a2.38 2.38 0 1 0 4.76 0 a2.38 2.38 0 1 0 -4.76 0zM159.12 313.5 a2.38 2.38 0 1 0 4.76 0 a2.38 2.38 0 1 0 -4.76 0zM45.12 332.5 a2.38 2.38 0 1 0 4.76 0 a2.38 2.38 0 1 0 -4.76 0zM444.12 313.5 a2.38 2.38 0 1 0 4.76 0 a2.38 2.38 0 1 0 -4.76 0z" fill="black"></path><path d="M691.12 123.5 a2.38 2.38 0 1 0 4.76 0 a2.38 2.38 0 1 0 -4.76 0zM634.12 104.5 a2.38 2.38 0 1 0 4.76 0 a2.38 2.38 0 1 0 -4.76 0zM311.12 123.5 a2.38 2.38 0 1 0 4.76 0 a2.38 2.38 0 1 0 -4.76 0zM292.12 123.5 a2.38 2.38 0 1 0 4.76 0 a2.38 2.38 0 1 0 -4.76 0zM615.12 85.5 a2.38 2.38 0 1 0 4.76 0 a2.38 2.38 0 1 0 -4.76 0zM862.12 47.5 a2.38 2.38 0 1 0 4.76 0 a2.38 2.38 0 1 0 -4.76 0zM216.12 161.5 a2.38 2.38 0 1 0 4.76 0 a2.38 2.38 0 1 0 -4.76 0zM45.12 199.5 a2.38 2.38 0 1 0 4.76 0 a2.38 2.38 0 1 0 -4.76 0zM672.12 104.5 a2.38 2.38 0 1 0 4.76 0 a2.38 2.38 0 1 0 -4.76 0zM178.12 161.5 a2.38 2.38 0 1 0 4.76 0 a2.38 2.38 0 1 0 -4.76 0z" fill="black"></path><path d="M634.12 408.5 a2.38 2.38 0 1 0 4.76 0 a2.38 2.38 0 1 0 -4.76 0zM596.12 389.5 a2.38 2.38 0 1 0 4.76 0 a2.38 2.38 0 1 0 -4.76 0zM349.12 389.5 a2.38 2.38 0 1 0 4.76 0 a2.38 2.38 0 1 0 -4.76 0zM558.12 351.5 a2.38 2.38 0 1 0 4.76 0 a2.38 2.38 0 1 0 -4.76 0zM368.12 351.5 a2.38 2.38 0 1 0 4.76 0 a2.38 2.38 0 1 0 -4.76 0zM482.12 389.5 a2.38 2.38 0 1 0 4.76 0 a2.38 2.38 0 1 0 -4.76 0zM235.12 351.5 a2.38 2.38 0 1 0 4.76 0 a2.38 2.38 0 1 0 -4.76 0zM615.12 370.5 a2.38 2.38 0 1 0 4.76 0 a2.38 2.38 0 1 0 -4.76 0zM159.12 351.5 a2.38 2.38 0 1 0 4.76 0 a2.38 2.38 0 1 0 -4.76 0z" fill="black"></path><path d="M463.12 104.5 a2.38 2.38 0 1 0 4.76 0 a2.38 2.38 0 1 0 -4.76 0zM273.12 123.5 a2.38 2.38 0 1 0 4.76 0 a2.38 2.38 0 1 0 -4.76 0zM26.12 199.5 a2.38 2.38 0 1 0 4.76 0 a2.38 2.38 0 1 0 -4.76 0z" fill="black"></path><path d="M159.12 389.5 a2.38 2.38 0 1 0 4.76 0 a2.38 2.38 0 1 0 -4.76 0zM102.12 389.5 a2.38 2.38 0 1 0 4.76 0 a2.38 2.38 0 1 0 -4.76 0zM197.12 408.5 a2.38 2.38 0 1 0 4.76 0 a2.38 2.38 0 1 0 -4.76 0zM83.12 389.5 a2.38 2.38 0 1 0 4.76 0 a2.38 2.38 0 1 0 -4.76 0z" fill="black"></path><path d="M121.12 142.5 a2.38 2.38 0 1 0 4.76 0 a2.38 2.38 0 1 0 -4.76 0z" fill="black"></path><path d="M121.12 408.5 a2.38 2.38 0 1 0 4.76 0 a2.38 2.38 0 1 0 -4.76 0zM64.12 389.5 a2.38 2.38 0 1 0 4.76 0 a2.38 2.38 0 1 0 -4.76 0zM45.12 389.5 a2.38 2.38 0 1 0 4.76 0 a2.38 2.38 0 1 0 -4.76 0z" fill="black"></path><path d="M463.12 85.5 a2.38 2.38 0 1 0 4.76 0 a2.38 2.38 0 1 0 -4.76 0z" fill="black"></path><path d="M539.12 446.5 a2.38 2.38 0 1 0 4.76 0 a2.38 2.38 0 1 0 -4.76 0zM368.12 465.5 a2.38 2.38 0 1 0 4.76 0 a2.38 2.38 0 1 0 -4.76 0zM501.12 427.5 a2.38 2.38 0 1 0 4.76 0 a2.38 2.38 0 1 0 -4.76 0zM197.12 446.5 a2.38 2.38 0 1 0 4.76 0 a2.38 2.38 0 1 0 -4.76 0zM159.12 446.5 a2.38 2.38 0 1 0 4.76 0 a2.38 2.38 0 1 0 -4.76 0zM463.12 465.5 a2.38 2.38 0 1 0 4.76 0 a2.38 2.38 0 1 0 -4.76 0zM349.12 427.5 a2.38 2.38 0 1 0 4.76 0 a2.38 2.38 0 1 0 -4.76 0zM292.12 427.5 a2.38 2.38 0 1 0 4.76 0 a2.38 2.38 0 1 0 -4.76 0z" fill="black"></path><path d="M710.12 47.5 a2.38 2.38 0 1 0 4.76 0 a2.38 2.38 0 1 0 -4.76 0zM634.12 66.5 a2.38 2.38 0 1 0 4.76 0 a2.38 2.38 0 1 0 -4.76 0zM311.12 47.5 a2.38 2.38 0 1 0 4.76 0 a2.38 2.38 0 1 0 -4.76 0zM539.12 47.5 a2.38 2.38 0 1 0 4.76 0 a2.38 2.38 0 1 0 -4.76 0zM444.12 47.5 a2.38 2.38 0 1 0 4.76 0 a2.38 2.38 0 1 0 -4.76 0zM501.12 47.5 a2.38 2.38 0 1 0 4.76 0 a2.38 2.38 0 1 0 -4.76 0zM577.12 66.5 a2.38 2.38 0 1 0 4.76 0 a2.38 2.38 0 1 0 -4.76 0zM729.12 66.5 a2.38 2.38 0 1 0 4.76 0 a2.38 2.38 0 1 0 -4.76 0zM102.12 66.5 a2.38 2.38 0 1 0 4.76 0 a2.38 2.38 0 1 0 -4.76 0zM558.12 66.5 a2.38 2.38 0 1 0 4.76 0 a2.38 2.38 0 1 0 -4.76 0z" fill="black"></path></mask></defs></svg>